<?xml version="1.0" encoding="UTF-8"?>
<!-- Created with Inkscape (http://www.inkscape.org/) -->
<svg width="17.101mm" height="18.156mm" version="1.1" viewBox="0 0 17.101151 18.156057" xmlns="http://www.w3.org/2000/svg" xmlns:cc="http://creativecommons.org/ns#" xmlns:dc="http://purl.org/dc/elements/1.1/" xmlns:rdf="http://www.w3.org/1999/02/22-rdf-syntax-ns#">
 <metadata>
  <rdf:RDF>
   <cc:Work rdf:about="">
    <dc:format>image/svg+xml</dc:format>
    <dc:type rdf:resource="http://purl.org/dc/dcmitype/StillImage"/>
    <dc:title/>
   </cc:Work>
  </rdf:RDF>
 </metadata>
 <g transform="translate(179.4 -95.154)">
  <path d="m-169.11 99.403c-0.93487 0.99978-1.2656 1.9861-1.4861 3.0325-0.2056 0.97438-0.10636 1.4471 0.0642 2.377h-1.3109c-0.0744-1.2333-0.27545-2.5164-1.1217-2.9415-1.0135 0.96026-2.8028 1.0767-4.4545-0.91334-1.1795-1.4206-0.68517-3.3362-1.9809-5.6448 1.7612 0.84138 3.1108 0.83256 4.0394 1.1501 2.9084 0.99413 3.5702 2.9475 3.0656 4.3723-1.2931-1.5279-2.8444-1.8013-5.1862-3.7663 2.249 2.8882 3.3225 3.0928 5.156 4.2979 0.37621 0.2854 0.60414 0.54575 0.80783 0.77929 0.13134-0.77082 0.58402-1.8175 1.1359-2.5968 0.3055-0.4311 0.69109-0.76659 1.0842-1.0908 1.3443-1.1063 2.9855-1.67 4.2897-2.1216-2.1041 0.28258-2.4603 0.07937-4.4908 1.4785 0.13959-1.1762 1.1828-2.3626 3.53-2.5538 0.85492-0.0695 1.9966 0.22754 3.6694-0.10724-1.5933 1.6778-1.5857 3.4068-2.89 4.3575-1.7825 1.2993-3.2453 0.87101-3.9212-0.10901zm-6.7102 5.8124h8.9184c0.16397 0 0.31599 0.13582 0.29835 0.2981l-0.17406 1.5903c-0.0178 0.16228-0.13505 0.29845-0.29821 0.29845h-8.5706c-0.16316 0-0.28056-0.13547-0.2982-0.29845l-0.17406-1.5903c-0.0176-0.16298 0.13437-0.2981 0.29834-0.2981zm1.0565 2.6906h6.8052c0.16397 0 0.31266 0.13758 0.2982 0.29809l-0.43476 4.8084c-0.0145 0.16016-0.13755 0.29809-0.29821 0.29809h-5.9355c-0.16083 0-0.28349-0.13511-0.29824-0.29809l-0.4349-4.8084c-0.0146-0.16333 0.13437-0.29809 0.2982-0.29809"/>
 </g>
</svg>
